<mxfile host="app.diagrams.net" modified="2023-09-05T21:18:03.539Z" agent="Mozilla/5.0 (Windows NT 10.0; Win64; x64) AppleWebKit/537.36 (KHTML, like Gecko) Chrome/116.0.0.0 Safari/537.36" etag="4awMMUmI9u8ckSmmBNfw" version="21.7.2" type="github">
  <diagram id="y1J3hak99u0Q4JU7Dpc4" name="Page-2">
    <mxGraphModel dx="1900" dy="534" grid="1" gridSize="10" guides="1" tooltips="1" connect="1" arrows="1" fold="1" page="1" pageScale="1" pageWidth="850" pageHeight="1100" math="0" shadow="0">
      <root>
        <mxCell id="0" />
        <mxCell id="1" parent="0" />
        <mxCell id="s_BUU0QXuFOBqXS9jAlA-13" value="Transaksi" style="shape=table;startSize=30;container=1;collapsible=1;childLayout=tableLayout;fixedRows=1;rowLines=0;fontStyle=1;align=center;resizeLast=1;" vertex="1" parent="1">
          <mxGeometry x="280" y="270" width="250" height="150" as="geometry" />
        </mxCell>
        <mxCell id="s_BUU0QXuFOBqXS9jAlA-14" value="" style="shape=partialRectangle;collapsible=0;dropTarget=0;pointerEvents=0;fillColor=none;points=[[0,0.5],[1,0.5]];portConstraint=eastwest;top=0;left=0;right=0;bottom=1;" vertex="1" parent="s_BUU0QXuFOBqXS9jAlA-13">
          <mxGeometry y="30" width="250" height="30" as="geometry" />
        </mxCell>
        <mxCell id="s_BUU0QXuFOBqXS9jAlA-15" value="PK" style="shape=partialRectangle;overflow=hidden;connectable=0;fillColor=none;top=0;left=0;bottom=0;right=0;fontStyle=1;" vertex="1" parent="s_BUU0QXuFOBqXS9jAlA-14">
          <mxGeometry width="30" height="30" as="geometry">
            <mxRectangle width="30" height="30" as="alternateBounds" />
          </mxGeometry>
        </mxCell>
        <mxCell id="s_BUU0QXuFOBqXS9jAlA-16" value="ID_Transaksi" style="shape=partialRectangle;overflow=hidden;connectable=0;fillColor=none;top=0;left=0;bottom=0;right=0;align=left;spacingLeft=6;fontStyle=5;" vertex="1" parent="s_BUU0QXuFOBqXS9jAlA-14">
          <mxGeometry x="30" width="220" height="30" as="geometry">
            <mxRectangle width="220" height="30" as="alternateBounds" />
          </mxGeometry>
        </mxCell>
        <mxCell id="s_BUU0QXuFOBqXS9jAlA-17" value="" style="shape=partialRectangle;collapsible=0;dropTarget=0;pointerEvents=0;fillColor=none;points=[[0,0.5],[1,0.5]];portConstraint=eastwest;top=0;left=0;right=0;bottom=0;" vertex="1" parent="s_BUU0QXuFOBqXS9jAlA-13">
          <mxGeometry y="60" width="250" height="30" as="geometry" />
        </mxCell>
        <mxCell id="s_BUU0QXuFOBqXS9jAlA-18" value="FK1" style="shape=partialRectangle;overflow=hidden;connectable=0;fillColor=none;top=0;left=0;bottom=0;right=0;" vertex="1" parent="s_BUU0QXuFOBqXS9jAlA-17">
          <mxGeometry width="30" height="30" as="geometry">
            <mxRectangle width="30" height="30" as="alternateBounds" />
          </mxGeometry>
        </mxCell>
        <mxCell id="s_BUU0QXuFOBqXS9jAlA-19" value="data_pelanggan" style="shape=partialRectangle;overflow=hidden;connectable=0;fillColor=none;top=0;left=0;bottom=0;right=0;align=left;spacingLeft=6;" vertex="1" parent="s_BUU0QXuFOBqXS9jAlA-17">
          <mxGeometry x="30" width="220" height="30" as="geometry">
            <mxRectangle width="220" height="30" as="alternateBounds" />
          </mxGeometry>
        </mxCell>
        <mxCell id="s_BUU0QXuFOBqXS9jAlA-51" value="" style="shape=partialRectangle;collapsible=0;dropTarget=0;pointerEvents=0;fillColor=none;points=[[0,0.5],[1,0.5]];portConstraint=eastwest;top=0;left=0;right=0;bottom=0;" vertex="1" parent="s_BUU0QXuFOBqXS9jAlA-13">
          <mxGeometry y="90" width="250" height="30" as="geometry" />
        </mxCell>
        <mxCell id="s_BUU0QXuFOBqXS9jAlA-52" value="" style="shape=partialRectangle;overflow=hidden;connectable=0;fillColor=none;top=0;left=0;bottom=0;right=0;" vertex="1" parent="s_BUU0QXuFOBqXS9jAlA-51">
          <mxGeometry width="30" height="30" as="geometry">
            <mxRectangle width="30" height="30" as="alternateBounds" />
          </mxGeometry>
        </mxCell>
        <mxCell id="s_BUU0QXuFOBqXS9jAlA-53" value="deskripsi_pembelian" style="shape=partialRectangle;overflow=hidden;connectable=0;fillColor=none;top=0;left=0;bottom=0;right=0;align=left;spacingLeft=6;" vertex="1" parent="s_BUU0QXuFOBqXS9jAlA-51">
          <mxGeometry x="30" width="220" height="30" as="geometry">
            <mxRectangle width="220" height="30" as="alternateBounds" />
          </mxGeometry>
        </mxCell>
        <mxCell id="s_BUU0QXuFOBqXS9jAlA-20" value="" style="shape=partialRectangle;collapsible=0;dropTarget=0;pointerEvents=0;fillColor=none;points=[[0,0.5],[1,0.5]];portConstraint=eastwest;top=0;left=0;right=0;bottom=0;" vertex="1" parent="s_BUU0QXuFOBqXS9jAlA-13">
          <mxGeometry y="120" width="250" height="30" as="geometry" />
        </mxCell>
        <mxCell id="s_BUU0QXuFOBqXS9jAlA-21" value="" style="shape=partialRectangle;overflow=hidden;connectable=0;fillColor=none;top=0;left=0;bottom=0;right=0;" vertex="1" parent="s_BUU0QXuFOBqXS9jAlA-20">
          <mxGeometry width="30" height="30" as="geometry">
            <mxRectangle width="30" height="30" as="alternateBounds" />
          </mxGeometry>
        </mxCell>
        <mxCell id="s_BUU0QXuFOBqXS9jAlA-22" value="data_product" style="shape=partialRectangle;overflow=hidden;connectable=0;fillColor=none;top=0;left=0;bottom=0;right=0;align=left;spacingLeft=6;" vertex="1" parent="s_BUU0QXuFOBqXS9jAlA-20">
          <mxGeometry x="30" width="220" height="30" as="geometry">
            <mxRectangle width="220" height="30" as="alternateBounds" />
          </mxGeometry>
        </mxCell>
        <mxCell id="s_BUU0QXuFOBqXS9jAlA-54" value="" style="endArrow=ERzeroToMany;startArrow=ERone;endFill=1;startFill=0;rounded=0;exitX=1;exitY=0.5;exitDx=0;exitDy=0;entryX=0.005;entryY=0.44;entryDx=0;entryDy=0;entryPerimeter=0;elbow=vertical;edgeStyle=orthogonalEdgeStyle;" edge="1" parent="1" source="s_BUU0QXuFOBqXS9jAlA-51" target="s_BUU0QXuFOBqXS9jAlA-10">
          <mxGeometry width="100" height="100" relative="1" as="geometry">
            <mxPoint x="650" y="445" as="sourcePoint" />
            <mxPoint x="650" y="150" as="targetPoint" />
          </mxGeometry>
        </mxCell>
        <mxCell id="s_BUU0QXuFOBqXS9jAlA-55" value="" style="endArrow=oval;startArrow=ERone;endFill=1;startFill=0;rounded=0;jumpStyle=none;edgeStyle=orthogonalEdgeStyle;entryX=0;entryY=0.5;entryDx=0;entryDy=0;exitX=0;exitY=0.5;exitDx=0;exitDy=0;" edge="1" parent="1" source="s_BUU0QXuFOBqXS9jAlA-20" target="s_BUU0QXuFOBqXS9jAlA-24">
          <mxGeometry width="100" height="100" relative="1" as="geometry">
            <mxPoint x="160" y="430" as="sourcePoint" />
            <mxPoint x="15" y="120" as="targetPoint" />
          </mxGeometry>
        </mxCell>
        <mxCell id="s_BUU0QXuFOBqXS9jAlA-57" value="" style="group" vertex="1" connectable="0" parent="1">
          <mxGeometry x="50" y="30" width="250" height="160" as="geometry" />
        </mxCell>
        <mxCell id="VQoAkCyqtHJsV-zdfD2L-1" value="" style="group" vertex="1" connectable="0" parent="s_BUU0QXuFOBqXS9jAlA-57">
          <mxGeometry x="-50" width="250" height="160" as="geometry" />
        </mxCell>
        <mxCell id="s_BUU0QXuFOBqXS9jAlA-34" value="merk" style="shape=partialRectangle;overflow=hidden;connectable=0;fillColor=none;top=0;left=0;bottom=0;right=0;align=left;spacingLeft=6;" vertex="1" parent="VQoAkCyqtHJsV-zdfD2L-1">
          <mxGeometry x="30" y="106.66666666666667" width="220" height="32" as="geometry">
            <mxRectangle width="220" height="30" as="alternateBounds" />
          </mxGeometry>
        </mxCell>
        <mxCell id="s_BUU0QXuFOBqXS9jAlA-33" value="product_description" style="shape=partialRectangle;overflow=hidden;connectable=1;fillColor=none;top=0;left=0;bottom=0;right=0;align=left;spacingLeft=6;movable=1;resizable=1;rotatable=1;deletable=1;editable=1;locked=0;" vertex="1" parent="VQoAkCyqtHJsV-zdfD2L-1">
          <mxGeometry x="30" y="85.33333333333333" width="220" height="32" as="geometry">
            <mxRectangle width="220" height="30" as="alternateBounds" />
          </mxGeometry>
        </mxCell>
        <mxCell id="s_BUU0QXuFOBqXS9jAlA-23" value="Product" style="shape=table;startSize=30;container=1;collapsible=1;childLayout=tableLayout;fixedRows=1;rowLines=0;fontStyle=1;align=center;resizeLast=1;" vertex="1" parent="VQoAkCyqtHJsV-zdfD2L-1">
          <mxGeometry width="250" height="160" as="geometry" />
        </mxCell>
        <mxCell id="s_BUU0QXuFOBqXS9jAlA-24" value="" style="shape=partialRectangle;collapsible=0;dropTarget=0;pointerEvents=0;fillColor=none;points=[[0,0.5],[1,0.5]];portConstraint=eastwest;top=0;left=0;right=0;bottom=1;" vertex="1" parent="s_BUU0QXuFOBqXS9jAlA-23">
          <mxGeometry y="30" width="250" height="30" as="geometry" />
        </mxCell>
        <mxCell id="s_BUU0QXuFOBqXS9jAlA-25" value="PK" style="shape=partialRectangle;overflow=hidden;connectable=0;fillColor=none;top=0;left=0;bottom=0;right=0;fontStyle=1;" vertex="1" parent="s_BUU0QXuFOBqXS9jAlA-24">
          <mxGeometry width="30" height="30" as="geometry">
            <mxRectangle width="30" height="30" as="alternateBounds" />
          </mxGeometry>
        </mxCell>
        <mxCell id="s_BUU0QXuFOBqXS9jAlA-26" value="ID_Product" style="shape=partialRectangle;overflow=hidden;connectable=0;fillColor=none;top=0;left=0;bottom=0;right=0;align=left;spacingLeft=6;fontStyle=5;" vertex="1" parent="s_BUU0QXuFOBqXS9jAlA-24">
          <mxGeometry x="30" width="220" height="30" as="geometry">
            <mxRectangle width="220" height="30" as="alternateBounds" />
          </mxGeometry>
        </mxCell>
        <mxCell id="s_BUU0QXuFOBqXS9jAlA-27" value="" style="shape=partialRectangle;collapsible=0;dropTarget=0;pointerEvents=0;fillColor=none;points=[[0,0.5],[1,0.5]];portConstraint=eastwest;top=0;left=0;right=0;bottom=0;" vertex="1" parent="s_BUU0QXuFOBqXS9jAlA-23">
          <mxGeometry y="60" width="250" height="30" as="geometry" />
        </mxCell>
        <mxCell id="s_BUU0QXuFOBqXS9jAlA-28" value="" style="shape=partialRectangle;overflow=hidden;connectable=0;fillColor=none;top=0;left=0;bottom=0;right=0;" vertex="1" parent="s_BUU0QXuFOBqXS9jAlA-27">
          <mxGeometry width="30" height="30" as="geometry">
            <mxRectangle width="30" height="30" as="alternateBounds" />
          </mxGeometry>
        </mxCell>
        <mxCell id="s_BUU0QXuFOBqXS9jAlA-29" value="product_type" style="shape=partialRectangle;overflow=hidden;connectable=0;fillColor=none;top=0;left=0;bottom=0;right=0;align=left;spacingLeft=6;" vertex="1" parent="s_BUU0QXuFOBqXS9jAlA-27">
          <mxGeometry x="30" width="220" height="30" as="geometry">
            <mxRectangle width="220" height="30" as="alternateBounds" />
          </mxGeometry>
        </mxCell>
        <mxCell id="s_BUU0QXuFOBqXS9jAlA-35" value="payment_method" style="shape=partialRectangle;overflow=hidden;connectable=0;fillColor=none;top=0;left=0;bottom=0;right=0;align=left;spacingLeft=6;" vertex="1" parent="VQoAkCyqtHJsV-zdfD2L-1">
          <mxGeometry x="30" y="128" width="220" height="32" as="geometry">
            <mxRectangle width="220" height="30" as="alternateBounds" />
          </mxGeometry>
        </mxCell>
        <mxCell id="s_BUU0QXuFOBqXS9jAlA-59" value="" style="endArrow=diamondThin;startArrow=ERone;endFill=1;startFill=0;rounded=0;entryX=0;entryY=0.5;entryDx=0;entryDy=0;edgeStyle=orthogonalEdgeStyle;exitX=-0.003;exitY=0.685;exitDx=0;exitDy=0;exitPerimeter=0;" edge="1" parent="1" source="s_BUU0QXuFOBqXS9jAlA-17" target="s_BUU0QXuFOBqXS9jAlA-4">
          <mxGeometry width="100" height="100" relative="1" as="geometry">
            <mxPoint x="250" y="350" as="sourcePoint" />
            <mxPoint x="540" y="90" as="targetPoint" />
          </mxGeometry>
        </mxCell>
        <mxCell id="s_BUU0QXuFOBqXS9jAlA-58" value="" style="group" vertex="1" connectable="0" parent="1">
          <mxGeometry x="550" y="30" width="260" height="210" as="geometry" />
        </mxCell>
        <mxCell id="s_BUU0QXuFOBqXS9jAlA-3" value="Pelanggan" style="shape=table;startSize=30;container=1;collapsible=1;childLayout=tableLayout;fixedRows=1;rowLines=0;fontStyle=1;align=center;resizeLast=1;movable=1;resizable=1;rotatable=1;deletable=1;editable=1;locked=0;connectable=1;" vertex="1" parent="s_BUU0QXuFOBqXS9jAlA-58">
          <mxGeometry x="10" width="250" height="210" as="geometry" />
        </mxCell>
        <mxCell id="s_BUU0QXuFOBqXS9jAlA-4" value="" style="shape=partialRectangle;collapsible=0;dropTarget=0;pointerEvents=0;fillColor=none;points=[[0,0.5],[1,0.5]];portConstraint=eastwest;top=0;left=0;right=0;bottom=1;" vertex="1" parent="s_BUU0QXuFOBqXS9jAlA-3">
          <mxGeometry y="30" width="250" height="30" as="geometry" />
        </mxCell>
        <mxCell id="s_BUU0QXuFOBqXS9jAlA-5" value="PK" style="shape=partialRectangle;overflow=hidden;connectable=0;fillColor=none;top=0;left=0;bottom=0;right=0;fontStyle=1;" vertex="1" parent="s_BUU0QXuFOBqXS9jAlA-4">
          <mxGeometry width="30" height="30" as="geometry">
            <mxRectangle width="30" height="30" as="alternateBounds" />
          </mxGeometry>
        </mxCell>
        <mxCell id="s_BUU0QXuFOBqXS9jAlA-6" value="ID_Pelanggan" style="shape=partialRectangle;overflow=hidden;connectable=0;fillColor=none;top=0;left=0;bottom=0;right=0;align=left;spacingLeft=6;fontStyle=5;" vertex="1" parent="s_BUU0QXuFOBqXS9jAlA-4">
          <mxGeometry x="30" width="220" height="30" as="geometry">
            <mxRectangle width="220" height="30" as="alternateBounds" />
          </mxGeometry>
        </mxCell>
        <mxCell id="s_BUU0QXuFOBqXS9jAlA-7" value="" style="shape=partialRectangle;collapsible=0;dropTarget=0;pointerEvents=0;fillColor=none;points=[[0,0.5],[1,0.5]];portConstraint=eastwest;top=0;left=0;right=0;bottom=0;" vertex="1" parent="s_BUU0QXuFOBqXS9jAlA-3">
          <mxGeometry y="60" width="250" height="30" as="geometry" />
        </mxCell>
        <mxCell id="s_BUU0QXuFOBqXS9jAlA-8" value="FK1" style="shape=partialRectangle;overflow=hidden;connectable=0;fillColor=none;top=0;left=0;bottom=0;right=0;" vertex="1" parent="s_BUU0QXuFOBqXS9jAlA-7">
          <mxGeometry width="30" height="30" as="geometry">
            <mxRectangle width="30" height="30" as="alternateBounds" />
          </mxGeometry>
        </mxCell>
        <mxCell id="s_BUU0QXuFOBqXS9jAlA-9" value="nama" style="shape=partialRectangle;overflow=hidden;connectable=0;fillColor=none;top=0;left=0;bottom=0;right=0;align=left;spacingLeft=6;" vertex="1" parent="s_BUU0QXuFOBqXS9jAlA-7">
          <mxGeometry x="30" width="220" height="30" as="geometry">
            <mxRectangle width="220" height="30" as="alternateBounds" />
          </mxGeometry>
        </mxCell>
        <mxCell id="s_BUU0QXuFOBqXS9jAlA-10" value="" style="shape=partialRectangle;collapsible=0;dropTarget=0;pointerEvents=0;fillColor=none;points=[[0,0.5],[1,0.5]];portConstraint=eastwest;top=0;left=0;right=0;bottom=0;" vertex="1" parent="s_BUU0QXuFOBqXS9jAlA-3">
          <mxGeometry y="90" width="250" height="120" as="geometry" />
        </mxCell>
        <mxCell id="s_BUU0QXuFOBqXS9jAlA-11" value="" style="shape=partialRectangle;overflow=hidden;connectable=0;fillColor=none;top=0;left=0;bottom=0;right=0;" vertex="1" parent="s_BUU0QXuFOBqXS9jAlA-10">
          <mxGeometry width="30" height="120" as="geometry">
            <mxRectangle width="30" height="120" as="alternateBounds" />
          </mxGeometry>
        </mxCell>
        <mxCell id="s_BUU0QXuFOBqXS9jAlA-12" value="" style="shape=partialRectangle;overflow=hidden;connectable=0;fillColor=none;top=0;left=0;bottom=0;right=0;align=left;spacingLeft=6;" vertex="1" parent="s_BUU0QXuFOBqXS9jAlA-10">
          <mxGeometry x="30" width="220" height="120" as="geometry">
            <mxRectangle width="220" height="120" as="alternateBounds" />
          </mxGeometry>
        </mxCell>
        <mxCell id="s_BUU0QXuFOBqXS9jAlA-37" value="alamat" style="shape=partialRectangle;overflow=hidden;connectable=0;fillColor=none;top=0;left=0;bottom=0;right=0;align=left;spacingLeft=6;" vertex="1" parent="s_BUU0QXuFOBqXS9jAlA-58">
          <mxGeometry x="40" y="80" width="220" height="30" as="geometry">
            <mxRectangle width="220" height="30" as="alternateBounds" />
          </mxGeometry>
        </mxCell>
        <mxCell id="s_BUU0QXuFOBqXS9jAlA-38" value="tanggal_lahir" style="shape=partialRectangle;overflow=hidden;connectable=0;fillColor=none;top=0;left=0;bottom=0;right=0;align=left;spacingLeft=6;" vertex="1" parent="s_BUU0QXuFOBqXS9jAlA-58">
          <mxGeometry x="40" y="100" width="220" height="30" as="geometry">
            <mxRectangle width="220" height="30" as="alternateBounds" />
          </mxGeometry>
        </mxCell>
        <mxCell id="s_BUU0QXuFOBqXS9jAlA-39" value="status_user" style="shape=partialRectangle;overflow=hidden;connectable=0;fillColor=none;top=0;left=0;bottom=0;right=0;align=left;spacingLeft=6;" vertex="1" parent="s_BUU0QXuFOBqXS9jAlA-58">
          <mxGeometry x="40" y="120" width="220" height="30" as="geometry">
            <mxRectangle width="220" height="30" as="alternateBounds" />
          </mxGeometry>
        </mxCell>
        <mxCell id="s_BUU0QXuFOBqXS9jAlA-40" value="gender" style="shape=partialRectangle;overflow=hidden;connectable=0;fillColor=none;top=0;left=0;bottom=0;right=0;align=left;spacingLeft=6;" vertex="1" parent="s_BUU0QXuFOBqXS9jAlA-58">
          <mxGeometry x="40" y="140" width="220" height="30" as="geometry">
            <mxRectangle width="220" height="30" as="alternateBounds" />
          </mxGeometry>
        </mxCell>
        <mxCell id="s_BUU0QXuFOBqXS9jAlA-41" value="created_at" style="shape=partialRectangle;overflow=hidden;connectable=0;fillColor=none;top=0;left=0;bottom=0;right=0;align=left;spacingLeft=6;" vertex="1" parent="s_BUU0QXuFOBqXS9jAlA-58">
          <mxGeometry x="40" y="160" width="220" height="30" as="geometry">
            <mxRectangle width="220" height="30" as="alternateBounds" />
          </mxGeometry>
        </mxCell>
        <mxCell id="s_BUU0QXuFOBqXS9jAlA-42" value="updated_at" style="shape=partialRectangle;overflow=hidden;connectable=0;fillColor=none;top=0;left=0;bottom=0;right=0;align=left;spacingLeft=6;" vertex="1" parent="s_BUU0QXuFOBqXS9jAlA-58">
          <mxGeometry x="40" y="180" width="220" height="30" as="geometry">
            <mxRectangle width="220" height="30" as="alternateBounds" />
          </mxGeometry>
        </mxCell>
        <mxCell id="s_BUU0QXuFOBqXS9jAlA-31" value="" style="endArrow=none;html=1;rounded=0;" edge="1" parent="1">
          <mxGeometry width="50" height="50" relative="1" as="geometry">
            <mxPoint x="30" y="190" as="sourcePoint" />
            <mxPoint x="30" y="115.33" as="targetPoint" />
            <Array as="points">
              <mxPoint x="30" y="157.99666666666667" />
            </Array>
          </mxGeometry>
        </mxCell>
      </root>
    </mxGraphModel>
  </diagram>
</mxfile>
